PathFileType	4	(X/Y/Z)	C:\Users\Basilio\Documents\Thesis Gigler\squatting_fais\c3dfiles\040\SLS_pre_back3\markers_experimental.trc
DataRate	CameraRate	NumFrames	NumMarkers	Units	OrigDataRate	OrigDataStartFrame	OrigNumFrames
200.000000	200.000000	4	63	mm	200.000000	176	1410
Frame#	Time	FHD			LBHD			RBHD			C7			T10			CLAV			LSHO			LUUPA			LMUPA			LDUPA			LLEP			LMEP			LRAD			LUL			LRFIN			RSHO			RUPA1			RMUPA			RDUPA			RLEP			RMEP			RRAD			RUL			RUFIN			LASI			RASI			USACR			LSACR			RSACR			LTHI1			LTHI2			LTHI3			LTHI4			LLFC			LMFC			LTIB1			LTIB2			LTIB3			LTIB4			LLMAL			LMMAL			LHEE			LMT1			LMT2			LMT5			RTHI			RTHI2			RTHI3			RTHI4			RLFC			RMFC			RTIB1			RTIB2			RTIB3			RTIB4			RLMAL			RMMAL			RHEE			RMT1			RMT2			RMT5			*61			*62			
		X1	Y1	Z1	X2	Y2	Z2	X3	Y3	Z3	X4	Y4	Z4	X5	Y5	Z5	X6	Y6	Z6	X7	Y7	Z7	X8	Y8	Z8	X9	Y9	Z9	X10	Y10	Z10	X11	Y11	Z11	X12	Y12	Z12	X13	Y13	Z13	X14	Y14	Z14	X15	Y15	Z15	X16	Y16	Z16	X17	Y17	Z17	X18	Y18	Z18	X19	Y19	Z19	X20	Y20	Z20	X21	Y21	Z21	X22	Y22	Z22	X23	Y23	Z23	X24	Y24	Z24	X25	Y25	Z25	X26	Y26	Z26	X27	Y27	Z27	X28	Y28	Z28	X29	Y29	Z29	X30	Y30	Z30	X31	Y31	Z31	X32	Y32	Z32	X33	Y33	Z33	X34	Y34	Z34	X35	Y35	Z35	X36	Y36	Z36	X37	Y37	Z37	X38	Y38	Z38	X39	Y39	Z39	X40	Y40	Z40	X41	Y41	Z41	X42	Y42	Z42	X43	Y43	Z43	X44	Y44	Z44	X45	Y45	Z45	X46	Y46	Z46	X47	Y47	Z47	X48	Y48	Z48	X49	Y49	Z49	X50	Y50	Z50	X51	Y51	Z51	X52	Y52	Z52	X53	Y53	Z53	X54	Y54	Z54	X55	Y55	Z55	X56	Y56	Z56	X57	Y57	Z57	X58	Y58	Z58	X59	Y59	Z59	X60	Y60	Z60	X61	Y61	Z61	X62	Y62	Z62	X63	Y63	Z63	

177	0.88	-165.5424041748047	1783.2021484375	-1172.587036132813	-291.0335693359376	1731.474243164063	-1207.230346679688	-337.3106689453126	1694.406982421875	-1072.47265625	-355.8046264648438	1574.65869140625	-1119.416870117188	-396.4597167968751	1256.726440429688	-1109.9228515625	-227.5734558105469	1500.227905273438	-1123.00439453125	-289.7082824707032	1533.257690429688	-1294.849975585938	-296.1724548339844	1325.295043945313	-1373.754028320313	-253.8820343017579	1305.927124023438	-1356.92529296875	-285.3782958984376	1257.410522460938	-1380.43505859375	-288.1098632812501	1194.35009765625	-1377.049438476563	-315.9013977050782	1182.507080078125	-1316.5400390625	-110.1072006225586	974.5117797851565	-1326.220092773438	-148.8565368652344	956.5187988281252	-1389.807006835938	-57.42568206787111	905.6467895507815	-1339.667846679688	-271.9429016113282	1517.771484375	-950.6196289062502	-294.4124755859376	1311.450805664063	-860.9083251953127	-255.986557006836	1289.058471679688	-878.9271240234377	-287.2128906250001	1242.669555664063	-857.1210937500002	-276.7639160156251	1180.423095703125	-857.1993408203127	-315.9988708496094	1166.145874023438	-923.9481201171877	-104.2175598144532	955.022888183594	-922.4888916015627	-152.2860717773438	932.6429443359377	-867.3238525390627	-58.36947250366212	876.9204711914065	-902.278503417969	-228.8513488769532	1080.117065429688	-1228.720581054688	-213.8235168457032	1082.713500976563	-999.9276123046877	-406.6197204589845	1119.939086914063	-1101.745849609375	-415.611053466797	1089.9951171875	-1129.061767578125	-412.6335449218751	1090.566162109375	-1072.81396484375	-335.6704101562501	816.697204589844	-1277.018310546875	-291.5085449218751	744.3192138671876	-1279.57080078125	-245.9075012207032	751.8583984375001	-1284.485473632813	-309.0596923828126	690.1141967773439	-1263.848876953125	-279.0108032226563	559.5516357421876	-1252.3125	-278.5234680175782	543.8112182617189	-1120.955688476563	-255.0671997070313	334.7282714843751	-1204.68408203125	-327.3550415039063	299.4035339355469	-1244.002563476563	-285.4175415039063	289.3845214843751	-1229.37353515625	-282.8080749511719	212.2211608886719	-1192.162231445313	-352.0543212890626	128.2152404785157	-1203.640258789063	-321.3712158203126	143.1212158203125	-1121.724365234375	-414.9263610839845	96.60969543457034	-1155.829711914063	-201.6085205078126	57.79774475097658	-1132.315795898438	-200.8787231445313	53.10847091674806	-1179.015625	-252.632553100586	38.47102737426759	-1227.419555664063	-262.0516357421876	812.3306884765627	-922.6829223632815	-225.7463378906251	756.9941406250001	-925.2530517578127	-193.105941772461	760.4056396484376	-931.0300292968752	-252.2872772216797	678.5548706054689	-937.2414550781252	-248.4622802734376	546.8348388671876	-947.1353149414065	-235.8531799316407	537.5238647460939	-1078.963012695313	-230.0857086181641	354.8790893554688	-966.7617187500002	-316.2783203125001	293.5318908691407	-948.1827392578127	-272.5107116699219	279.2740478515626	-955.7524414062502	-261.9471740722657	231.2066040039063	-987.6155395507815	-338.7216796875001	128.8435668945313	-973.3908691406252	-309.7766113281251	142.1762084960938	-1056.122680664063	-399.1553344726564	95.79066467285158	-1035.641845703125	-181.7291412353516	56.62043380737306	-1033.245239257813	-189.1527709960938	54.14455795288087	-993.7435302734377	-236.7442169189454	35.46669387817384	-944.6572265625002	nan	nan	nan	nan	nan	nan	
178	0.885	-165.3713989257813	1783.00927734375	-1173.187133789063	-290.8357238769532	1731.296630859375	-1207.932495117188	-337.2416076660157	1694.372680664063	-1073.263549804688	-355.6634826660157	1574.516967773438	-1120.2802734375	-396.7536010742189	1256.67919921875	-1110.64306640625	-227.5554199218751	1500.135498046875	-1123.920532226563	-289.4947814941407	1533.178588867188	-1295.605712890625	-294.4372253417969	1325.687866210938	-1375.171997070313	-251.7879638671876	1306.58251953125	-1358.885986328125	-283.8551025390626	1257.782958984375	-1381.620239257813	-286.3541564941407	1194.623413085938	-1378.378295898438	-314.4209899902344	1182.663330078125	-1317.86767578125	-108.1368484497071	975.528503417969	-1327.820434570313	-146.1574401855469	957.4663696289065	-1391.2666015625	-54.1364212036133	906.536315917969	-1341.250732421875	-271.6021423339844	1517.473876953125	-951.5217895507815	-293.9670715332032	1311.428344726563	-861.6035766601565	-255.1548461914063	1289.050537109375	-879.7166748046877	-285.9835815429688	1242.6513671875	-857.848571777344	-275.8663330078126	1180.353759765625	-857.8259887695315	-315.0628662109376	1165.914428710938	-924.5604248046877	-102.4024047851563	955.483825683594	-923.424743652344	-150.1609954833985	933.261901855469	-867.8154296875002	-56.72605895996095	877.2484130859377	-902.9414062500002	-229.536849975586	1079.679077148438	-1229.226806640625	-214.2809753417969	1082.460815429688	-1000.549987792969	-407.2463989257814	1119.9697265625	-1101.970458984375	-416.1712036132814	1089.9208984375	-1129.341918945313	-413.1726989746095	1090.48486328125	-1073.029296875	-336.1406555175782	816.2673339843752	-1277.101928710938	-291.7656860351563	743.8734130859376	-1279.714233398438	-246.2372741699219	751.4589843750001	-1284.847778320313	-309.0840148925782	689.7300415039064	-1263.934692382813	-278.6599731445313	559.2669067382814	-1252.468139648438	-278.1296691894532	543.4606933593751	-1121.095092773438	-254.9221191406251	334.4828491210938	-1204.4013671875	-326.9789123535157	299.1900939941407	-1243.95751953125	-284.8953552246094	289.1669006347657	-1229.553344726563	-282.8266906738282	211.7417449951172	-1191.933837890625	-352.0476684570313	128.1147003173828	-1203.38134765625	-321.4629516601563	142.9203643798828	-1121.497680664063	-414.9060668945314	96.609489440918	-1155.750732421875	-201.5715942382813	57.69184494018556	-1132.319458007813	-200.8820953369141	53.16403579711915	-1178.953491210938	-252.613021850586	38.4562110900879	-1227.374877929688	-261.2423706054688	812.257751464844	-922.997741699219	-224.3957977294922	756.7992553710939	-926.2485351562502	-191.6456909179688	760.4116210937501	-931.8823242187502	-250.7924194335938	678.4864501953126	-937.658142089844	-246.4953765869141	546.9207763671876	-947.5791625976565	-234.1690063476563	537.6179199218751	-1079.31640625	-228.4772033691407	355.1569824218751	-967.094177246094	-315.2681579589844	293.9889831542969	-948.4494628906252	-270.6925964355469	280.2359924316407	-955.1639404296877	-261.2889099121094	231.5850372314454	-987.6658325195315	-338.0408630371094	129.2957305908203	-973.0540161132815	-309.4532165527344	142.4921112060547	-1055.938720703125	-398.960418701172	96.7450866699219	-1035.423828125	-181.7212066650391	56.68712997436525	-1033.221557617188	-189.0613861083985	54.22235107421876	-993.7161865234377	-236.7592468261719	35.4720802307129	-944.6831665039065	nan	nan	nan	nan	nan	nan	
179	0.89	-165.0536041259766	1782.7705078125	-1173.722778320313	-290.6956481933594	1731.182983398438	-1208.597900390625	-336.8394775390626	1694.093872070313	-1073.929443359375	-355.4520874023438	1574.58251953125	-1121.08349609375	-396.7274780273439	1256.860107421875	-1111.290893554688	-227.5030822753907	1499.858032226563	-1124.68310546875	-289.1827697753907	1533.076416015625	-1296.1943359375	-293.1343078613282	1326.094360351563	-1376.396606445313	-250.6517486572266	1306.977783203125	-1359.798828125	-282.4704589843751	1257.934692382813	-1382.658569335938	-284.5489807128907	1194.954223632813	-1379.716186523438	-312.6826171875001	1182.693115234375	-1319.22119140625	-105.9271087646485	976.3799438476565	-1328.947631835938	-143.7084045410157	958.5159301757815	-1392.651123046875	-51.52868270874025	907.418395996094	-1342.606689453125	-271.1012268066407	1517.242431640625	-952.4228515625002	-293.1726074218751	1311.365844726563	-862.5896606445315	-254.0840759277344	1288.899291992188	-880.5734863281252	-285.2436218261719	1242.670654296875	-858.5057373046877	-274.7084350585938	1180.616943359375	-858.5024414062502	-314.1509094238282	1165.720825195313	-925.1566162109377	-100.3740615844727	955.972839355469	-924.2168579101565	-148.404769897461	933.626892089844	-868.8084106445315	-54.51808547973634	877.641784667969	-903.7596435546877	-230.7937011718751	1079.651733398438	-1229.923828125	-214.7106475830079	1082.177001953125	-1001.110046386719	-407.5591735839845	1120.182250976563	-1102.343017578125	-416.6631774902345	1089.883178710938	-1129.66943359375	-413.6808166503907	1090.37451171875	-1073.407592773438	-336.4799804687501	815.872741699219	-1277.147705078125	-291.9566650390626	743.5364379882814	-1279.833740234375	-246.4718780517579	751.1723022460939	-1285.153686523438	-309.1248168945313	689.2691650390626	-1264.028930664063	-278.3092651367188	558.9417114257814	-1252.609619140625	-278.3080139160157	542.9498901367189	-1120.860961914063	-254.6522979736329	334.2547607421876	-1204.32666015625	-326.6278076171876	298.9637756347657	-1244.013549804688	-284.6531372070313	288.8310546875001	-1229.5439453125	-282.6910400390626	211.7615509033204	-1191.74365234375	-352.0367126464844	128.035140991211	-1203.255615234375	-321.5566101074219	142.7142028808594	-1121.28466796875	-414.8427734375001	96.49505615234378	-1155.678833007813	-201.5480041503907	57.62944412231447	-1132.209228515625	-200.9121704101563	53.10157012939455	-1178.914306640625	-252.6077880859376	38.51398468017579	-1227.39013671875	-260.2333068847657	812.0676879882815	-923.2370605468752	-223.2646942138672	756.7734985351564	-926.3404541015627	-190.6225738525391	760.5619506835939	-932.295837402344	-249.1259002685547	678.0969848632814	-938.042907714844	-244.5895538330079	546.9421386718751	-948.0383911132815	-234.2662048339844	537.6254272460939	-1079.838134765625	-227.3960876464844	355.1138610839844	-967.4384765625002	-314.4769592285157	294.5692749023438	-948.5241699218752	-270.2981262207032	280.3014221191407	-955.5420532226565	-260.5769042968751	231.6944274902344	-987.8132324218752	-337.8088684082032	129.5555419921875	-972.8701171875002	-309.1944274902344	142.8202514648438	-1055.752197265625	-398.9866943359376	97.304557800293	-1035.178588867188	-181.6630401611328	56.67920303344728	-1033.214233398438	-189.0691375732422	54.10270309448244	-993.7525634765627	-236.6733703613282	35.46728515625001	-944.6504516601565	nan	nan	nan	nan	nan	nan	
180	0.895	-164.6460723876953	1782.682739257813	-1174.361572265625	-290.4689636230469	1731.032104492188	-1209.288208007813	-336.8822326660157	1694.031127929688	-1074.635498046875	-355.0935058593751	1574.375366210938	-1121.78125	-396.9782104492189	1256.860717773438	-1112.169555664063	-227.4379119873047	1499.730834960938	-1125.476806640625	-288.7172546386719	1533.129516601563	-1296.891357421875	-292.7504882812501	1326.288452148438	-1376.859375	-249.8431091308594	1307.0654296875	-1360.281005859375	-280.8725891113282	1258.308349609375	-1383.923583984375	-282.9409179687501	1195.339965820313	-1381.00634765625	-311.1519470214844	1182.865234375	-1320.723388671875	-103.3024063110352	977.2073974609377	-1330.250122070313	-140.6490325927735	959.3023071289065	-1394.209350585938	-48.94643020629884	908.6145629882815	-1344.120483398438	-270.6750183105469	1517.050537109375	-953.3454589843752	-292.5442504882813	1311.252075195313	-863.221130371094	-253.5787963867188	1288.785278320313	-881.6219482421877	-284.5518188476563	1242.652587890625	-859.090515136719	-273.6809997558594	1180.085205078125	-859.051208496094	-313.1311340332032	1165.470336914063	-925.733581542969	-98.79204559326175	956.6426391601565	-924.9006958007815	-146.615707397461	934.1313476562502	-869.6757812500002	-52.90979003906251	878.3641357421877	-904.544860839844	-231.3959503173829	1079.216918945313	-1230.499267578125	-215.2763061523438	1081.817504882813	-1001.531616210938	-408.0613403320314	1120.084106445313	-1102.851684570313	-417.0892028808595	1089.894165039063	-1130.007202148438	-414.1344299316407	1090.360229492188	-1073.8095703125	-336.8468017578126	815.5478515625002	-1277.257446289063	-292.1756591796876	743.2104492187501	-1279.90185546875	-246.7182006835938	750.8429565429689	-1285.374389648438	-309.3447265625001	688.9174804687501	-1264.168579101563	-277.9545593261719	558.6280517578126	-1252.93212890625	-278.1697387695313	542.6737060546876	-1120.934936523438	-254.5345764160157	333.8464965820313	-1204.153442382813	-326.2305603027344	298.6567382812501	-1244.014282226563	-284.2236633300782	288.5288391113282	-1229.4189453125	-282.5728149414063	211.6230621337891	-1191.59765625	-352.0508728027344	128.0130004882813	-1203.115356445313	-321.5596618652344	142.5733184814453	-1121.061645507813	-414.8565673828126	96.42225646972659	-1155.662353515625	-201.5219879150391	57.53361892700197	-1132.198974609375	-200.8486328125001	52.99523925781251	-1178.900634765625	-252.4119415283204	38.69545364379884	-1227.73974609375	-258.8843994140626	811.646667480469	-923.648132324219	-221.819564819336	756.5166625976564	-926.8347167968752	-189.1702880859375	760.8482055664064	-933.1289672851565	-247.6220245361329	678.1993408203126	-938.7254028320315	-242.7912902832032	547.3038330078126	-948.5166015625002	-232.8166809082032	537.7301635742189	-1080.27978515625	-226.4489135742188	355.1381530761719	-967.4358520507815	-313.7881469726563	294.5777893066407	-948.5623168945315	-269.6182250976563	280.7423400878907	-955.4829101562502	-259.6765441894532	231.5806884765626	-987.8277587890627	-337.5925292968751	130.157211303711	-972.7631835937502	-309.0478515625001	143.2283172607422	-1055.565185546875	-398.7230224609376	97.77219390869143	-1034.994995117188	-181.1706237792969	56.39535903930665	-1033.014526367188	-188.958740234375	54.17242813110353	-993.6917114257815	-236.7055664062501	35.46740722656251	-944.621032714844	nan	nan	nan	nan	nan	nan	
